<?xml version="1.0" encoding="UTF-8"?>
<!DOCTYPE svg PUBLIC "-//W3C//DTD SVG 1.1//EN" "http://www.w3.org/Graphics/SVG/1.1/DTD/svg11.dtd">
<!-- Creator: CorelDRAW X8 -->
<svg xmlns="http://www.w3.org/2000/svg" xml:space="preserve" width="800px" height="800px" version="1.1" style="shape-rendering:geometricPrecision; text-rendering:geometricPrecision; image-rendering:optimizeQuality; fill-rule:evenodd; clip-rule:evenodd"
viewBox="0 0 800 800"
 xmlns:xlink="http://www.w3.org/1999/xlink">
 <defs>
  <style type="text/css">
   <![CDATA[
    .fil0 {fill:white}
   ]]>
  </style>
 </defs>
 <g id="Слой_x0020_1">
  <metadata id="CorelCorpID_0Corel-Layer"/>
  <g id="_2473238515584">
   <g>
    <path class="fil0" d="M400 72c107,0 119,0 162,2 39,2 60,9 74,14 19,7 32,16 46,30 14,14 23,27 30,46 5,14 12,35 14,74 2,43 2,55 2,162 0,107 0,119 -2,162 -2,39 -9,60 -14,74 -7,19 -16,32 -30,46 -14,14 -27,23 -46,30 -14,5 -35,12 -74,14 -43,2 -55,2 -162,2 -107,0 -119,0 -162,-2 -39,-2 -60,-9 -74,-14 -19,-7 -32,-16 -46,-30 -14,-14 -23,-27 -30,-46 -5,-14 -12,-35 -14,-74 -2,-43 -2,-55 -2,-162 0,-107 0,-119 2,-162 2,-39 9,-60 14,-74 7,-19 16,-32 30,-46 14,-14 27,-23 46,-30 14,-5 35,-12 74,-14 43,-2 55,-2 162,-2l0 0zm0 -72c-109,0 -122,0 -165,2 -43,2 -72,9 -97,19 -26,10 -49,24 -71,46 -22,22 -36,45 -46,71 -10,25 -17,54 -19,97 -2,43 -2,56 -2,165 0,109 0,122 2,165 2,43 9,72 19,97 10,26 24,49 46,71 22,22 45,36 71,46 25,10 54,17 97,19 43,2 56,2 165,2 109,0 122,0 165,-2 43,-2 72,-9 97,-19 26,-10 49,-24 71,-46 22,-22 36,-45 46,-71 10,-25 17,-54 19,-97 2,-43 2,-56 2,-165 0,-109 0,-122 -2,-165 -2,-43 -9,-72 -19,-97 -10,-26 -24,-49 -46,-71 -22,-22 -45,-36 -71,-46 -25,-10 -54,-17 -97,-19 -43,-2 -56,-2 -165,-2zm0 195c-113,0 -205,92 -205,205 0,113 92,205 205,205 113,0 205,-92 205,-205 0,-113 -92,-205 -205,-205zm0 338c-74,0 -133,-59 -133,-133 0,-74 59,-133 133,-133 74,0 133,59 133,133 0,74 -59,133 -133,133zm262 -347c0,27 -22,48 -48,48 -27,0 -48,-21 -48,-48 0,-26 21,-48 48,-48 26,0 48,22 48,48z"/>
   </g>
  </g>
 </g>
</svg>
