<?xml version="1.0" encoding="UTF-8"?>
<!DOCTYPE svg PUBLIC "-//W3C//DTD SVG 1.1//EN" "http://www.w3.org/Graphics/SVG/1.1/DTD/svg11.dtd">
<!-- Creator: CorelDRAW X8 -->
<svg xmlns="http://www.w3.org/2000/svg" xml:space="preserve" width="800px" height="904px" version="1.1" style="shape-rendering:geometricPrecision; text-rendering:geometricPrecision; image-rendering:optimizeQuality; fill-rule:evenodd; clip-rule:evenodd"
viewBox="0 0 800 904"
 xmlns:xlink="http://www.w3.org/1999/xlink">
 <defs>
  <style type="text/css">
   <![CDATA[
    .fil0 {fill:white}
   ]]>
  </style>
 </defs>
 <g id="Слой_x0020_1">
  <metadata id="CorelCorpID_0Corel-Layer"/>
  <g id="_2473240806112">
   <g>
    <path class="fil0" d="M38 650c10,66 34,115 63,151 -46,-37 -86,-96 -100,-189 0,0 -29,-294 316,-292l1 39c-307,18 -280,291 -280,291l0 0z"/>
    <path class="fil0" d="M561 38l-119 0 -8 620c-22,96 -119,92 -119,92 -57,0 -86,-25 -102,-52 16,9 37,14 64,14 0,0 98,5 120,-92l7 -620 150 0c0,0 1,15 7,38l0 0zm202 177l0 34c-56,-9 -93,-38 -119,-71 29,21 68,36 119,37l0 0z"/>
   </g>
   <g>
    <path class="fil0" d="M357 513c0,0 -158,-19 -161,121 0,0 -1,33 17,64 -56,-31 -55,-102 -55,-102 4,-140 161,-121 161,-121l-1 -116c11,-1 24,-1 36,-1l3 155zm287 -335c-52,-40 -74,-101 -83,-140l31 0c0,0 5,78 52,140l0 0z"/>
    <path class="fil0" d="M800 252l0 148c0,0 -105,2 -208,-69l-2 310c0,0 -4,241 -253,262 0,0 -146,10 -236,-102 88,72 199,65 199,65 249,-22 252,-263 252,-263l2 -310c103,72 209,70 209,70l0 -114c11,2 24,3 37,3z"/>
   </g>
  </g>
 </g>
</svg>
