<svg width="40" height="40" viewBox="0 0 40 40" fill="none" xmlns="http://www.w3.org/2000/svg">
<path d="M9.56271 11.5298C10.1528 13.8125 11.7512 19.5673 13.8433 23.6921C13.9306 23.8641 14.097 23.9822 14.2882 24.0078C16.0668 24.2458 20.6491 24.78 25.8956 24.78C28.9471 24.78 32.224 24.5991 35.3026 24.0741C35.5473 24.0324 35.7392 23.8409 35.7815 23.5963C36.1722 21.3338 37.4607 13.5285 37.6322 8.08085C37.6371 7.92413 37.579 7.77195 37.471 7.65843C37.3629 7.54491 37.2137 7.47937 37.0569 7.47656C35.378 7.44687 31.9501 7.43538 27.8554 7.6939C20.7278 8.14374 14.5318 9.22812 9.93708 10.8298C9.64919 10.9302 9.48638 11.2346 9.56271 11.5298ZM17.6376 15.3432L16.8404 10.2261C18.6107 9.88007 20.5065 9.58687 22.5085 9.34991L22.9257 14.7983C21.0114 14.966 19.2186 15.1568 17.6376 15.3432ZM35.8093 15.4826C35.7597 15.8788 35.7089 16.2706 35.6575 16.6562C26.821 16.4246 16.5251 17.8012 12.8657 18.344C12.7297 17.9644 12.5983 17.5863 12.4718 17.2126C15.8722 16.7026 26.6354 15.2282 35.8093 15.4826ZM23.1944 18.3071L23.5975 23.5757C21.8768 23.5264 20.2737 23.4279 18.8793 23.3151L18.1796 18.8233C19.6892 18.646 21.3879 18.4658 23.1944 18.3071ZM13.2808 19.4673C14.2037 19.3321 15.484 19.1537 17.0154 18.9638L17.6768 23.21C16.4504 23.095 15.4467 22.9764 14.7508 22.8867C14.225 21.8204 13.7321 20.6508 13.2808 19.4673ZM24.7747 23.6009L24.3622 18.2089C26.0525 18.0731 27.8179 17.9598 29.5969 17.8875L29.5657 23.5137C27.9347 23.6017 26.3178 23.6231 24.7747 23.6009ZM34.6969 22.9865C33.3994 23.1936 32.0689 23.34 30.738 23.4387L30.769 17.8459C32.3604 17.7982 33.9512 17.7868 35.4976 17.8245C35.1908 20.0073 34.884 21.8852 34.6969 22.9865ZM36.4381 8.63976C36.3593 10.4047 36.1751 12.3811 35.9504 14.3141C34.2651 14.2648 32.5262 14.2738 30.788 14.3244L30.8191 8.71812C33.1702 8.62929 35.138 8.62515 36.4381 8.63976ZM27.9292 8.86351C28.5168 8.8264 29.0904 8.79499 29.6469 8.76835L29.6158 14.3645C27.7367 14.4388 25.8732 14.5578 24.0936 14.7005L23.6739 9.2196C25.048 9.07484 26.4683 8.95569 27.9292 8.86351ZM15.6911 10.4622L16.4735 15.4841C14.5286 15.7258 12.9997 15.9471 12.0998 16.0835C11.551 14.374 11.1186 12.8298 10.8351 11.7623C12.302 11.2762 13.9283 10.8418 15.6911 10.4622Z" fill="black"/>
<path d="M15.2646 33.8145C14.2431 33.8145 13.4121 34.6455 13.4121 35.667C13.4121 36.6884 14.2431 37.5195 15.2646 37.5195C16.2861 37.5195 17.1171 36.6884 17.1171 35.667C17.1171 34.6455 16.2861 33.8145 15.2646 33.8145ZM15.2646 36.3477C14.8893 36.3477 14.584 36.0423 14.584 35.667C14.584 35.2917 14.8893 34.9864 15.2646 34.9864C15.6399 34.9864 15.9452 35.2917 15.9452 35.667C15.9452 36.0423 15.6399 36.3477 15.2646 36.3477Z" fill="black"/>
<path d="M34.2587 33.8145C33.2373 33.8145 32.4062 34.6455 32.4062 35.667C32.4062 36.6884 33.2373 37.5195 34.2587 37.5195C35.2802 37.5195 36.1112 36.6884 36.1112 35.667C36.1112 34.6455 35.2802 33.8145 34.2587 33.8145ZM34.2587 36.3477C33.8834 36.3477 33.5781 36.0423 33.5781 35.667C33.5781 35.2917 33.8834 34.9864 34.2587 34.9864C34.6341 34.9864 34.9394 35.2917 34.9394 35.667C34.9394 36.0423 34.634 36.3477 34.2587 36.3477Z" fill="black"/>
<path d="M34.2587 31.9754C34.1455 31.9754 34.0337 31.9814 33.9231 31.9914C33.3233 31.2415 32.6759 30.5221 31.9944 29.8496C31.7642 29.6224 31.3931 29.6247 31.1659 29.855C30.9385 30.0854 30.9409 30.4564 31.1713 30.6836C31.6997 31.205 32.2065 31.7563 32.685 32.3285C32.3241 32.4993 31.9955 32.7272 31.7101 33.0001C29.5299 30.4289 27.1163 28.7854 25.427 27.8419C24.9261 27.5619 24.4497 27.3208 24.0103 27.1145C24.6102 27.1279 25.2229 27.1354 25.8453 27.1354C26.087 27.1354 26.327 27.1341 26.5658 27.1319C27.5916 27.7419 28.575 28.428 29.4897 29.1745C29.5985 29.2633 29.7295 29.3064 29.8598 29.3064C30.0298 29.3064 30.1983 29.2329 30.3141 29.091C30.5187 28.8403 30.4813 28.4711 30.2306 28.2665C29.7245 27.8536 29.1986 27.4581 28.6567 27.0826C31.5502 26.9724 34.1971 26.6886 36.5522 26.2342C37.2591 26.0981 37.8207 25.5308 37.9497 24.8233C38.0334 24.3682 40 13.5981 40 6.91895C40 5.97145 39.2587 5.19879 38.313 5.16012C38.1278 5.15223 33.708 4.97285 27.7344 5.34824C22.5073 5.67645 17.8471 6.31691 13.8834 7.25184C13.5684 7.32613 13.3734 7.64168 13.4477 7.9566C13.522 8.27152 13.8375 8.46652 14.1524 8.39238C18.052 7.47262 22.6463 6.84184 27.8078 6.51777C33.7208 6.14621 38.0808 6.32324 38.2643 6.3309C38.5805 6.34387 38.8281 6.60215 38.8281 6.91895C38.8281 13.4924 36.8801 24.1604 36.797 24.6123C36.7539 24.8487 36.5665 25.0381 36.3304 25.0835C33.3048 25.6675 29.7771 25.9635 25.8453 25.9635C19.2434 25.9635 13.7448 25.1233 13.5148 25.0877C13.3328 25.0592 13.1725 24.9457 13.0856 24.7838C10.2024 19.4172 8.24383 11.1279 8.16187 10.7776C8.09531 10.4929 8.25062 10.1994 8.52344 10.0947C9.58023 9.68848 10.7207 9.3109 11.913 8.97238C12.2243 8.88402 12.4051 8.56004 12.3167 8.24871C12.2284 7.93738 11.9043 7.75668 11.593 7.84504C11.0579 7.99699 10.5334 8.15707 10.0208 8.32363C9.98813 8.20793 9.95492 8.09332 9.92078 7.98137C9.35453 6.12535 8.58023 4.69746 7.61977 3.73785C7.1818 3.2991 6.66008 2.93746 6.06641 2.65996C5.615 1.48121 4.47234 0.641602 3.13664 0.641602C1.40711 0.641602 0 2.04871 0 3.77832C0 5.50785 1.40711 6.91496 3.13664 6.91496C3.88555 6.91496 4.57383 6.65074 5.11375 6.21113C5.11914 6.21637 5.12508 6.22137 5.13039 6.22668C6.27 7.36637 6.87086 10.0428 6.99148 10.8905C6.99148 10.8907 6.99227 10.8906 6.99234 10.8907C6.99961 10.9421 7.00891 10.9934 7.02086 11.0446C7.1043 11.4011 9.09758 19.8368 12.0531 25.3379C12.3122 25.8212 12.7909 26.1604 13.3345 26.2456C13.4555 26.2643 15.0026 26.5008 17.3914 26.7253C15.7973 28.6012 14.8603 30.5937 14.3252 32.0971C12.7434 32.5139 11.5734 33.9562 11.5734 35.6671C11.5734 37.7027 13.2295 39.3587 15.265 39.3587C17.3005 39.3587 18.9566 37.7026 18.9566 35.6671C18.9566 34.5973 18.4988 33.6328 17.7693 32.9579C18.4127 31.2859 19.5916 29.1097 21.6948 27.4284C22.387 27.6699 23.5282 28.1229 24.8554 28.8649C26.5027 29.785 28.8754 31.4063 30.9862 33.9614C30.719 34.472 30.567 35.0519 30.567 35.6671C30.567 37.7027 32.223 39.3587 34.2586 39.3587C36.2942 39.3587 37.9502 37.7026 37.9502 35.6671C37.9502 33.6315 36.2942 31.9754 34.2587 31.9754ZM3.13664 5.74309C2.05328 5.74309 1.17188 4.86168 1.17188 3.77832C1.17188 2.69488 2.05328 1.81348 3.13664 1.81348C4.22 1.81348 5.10141 2.69488 5.10141 3.77832C5.10141 4.86168 4.22 5.74309 3.13664 5.74309ZM5.86977 5.31449C6.07352 4.95348 6.20805 4.54855 6.25461 4.11746C6.44812 4.25355 6.62781 4.40285 6.79102 4.56629C7.61461 5.3891 8.29047 6.65316 8.79992 8.32316C8.8375 8.4466 8.87414 8.57332 8.90992 8.70184C8.63648 8.79965 8.36734 8.89926 8.10336 9.00074C7.99977 9.04051 7.90195 9.08949 7.81039 9.14629C7.48703 7.94645 6.90711 6.34613 5.95898 5.39793C5.93031 5.36934 5.89984 5.34207 5.86977 5.31449ZM15.265 38.1869C13.8755 38.1869 12.7452 37.0565 12.7452 35.6671C12.7452 34.2778 13.8756 33.1474 15.265 33.1474C16.6544 33.1474 17.7848 34.2778 17.7848 35.6671C17.7848 37.0565 16.6544 38.1869 15.265 38.1869ZM16.7702 32.2975C16.4116 32.1366 16.0231 32.0311 15.6152 31.9925C16.2076 30.4811 17.2066 28.5731 18.8546 26.8514C19.3567 26.8908 19.8841 26.9282 20.4334 26.9623C18.5523 28.645 17.4282 30.6651 16.7702 32.2975ZM34.2587 38.1869C32.8693 38.1869 31.7389 37.0565 31.7389 35.6671C31.7389 34.2778 32.8693 33.1474 34.2587 33.1474C35.648 33.1474 36.7784 34.2778 36.7784 35.6671C36.7784 37.0565 35.648 38.1869 34.2587 38.1869Z" fill="black"/>
</svg>
