<svg width="40" height="40" viewBox="0 0 40 40" fill="none" xmlns="http://www.w3.org/2000/svg">
<g clip-path="url(#clip0)">
<path d="M38.0928 23.4292H37.4942V18.0374C37.4942 17.1838 37.0694 16.428 36.4206 15.9688V15.2347C36.4206 14.1697 35.5542 13.3034 34.4893 13.3034H34.0424L35.7524 10.794C36.3256 9.95295 36.1077 8.80225 35.2666 8.22896L23.6626 0.321152C23.2552 0.0434176 22.7641 -0.0590824 22.2794 0.0328707C21.7949 0.124668 21.3752 0.39959 21.0975 0.80709L11.0818 15.5042H8.29471L8.96713 8.69717C8.97471 8.62045 9.02455 8.55396 9.09408 8.52779C9.96041 8.20115 10.7112 7.59115 11.2081 6.81021C11.2472 6.74873 11.321 6.71357 11.3974 6.72131L15.7689 7.15318C16.0824 7.18357 16.3612 6.95529 16.3921 6.64201C16.4231 6.32873 16.1942 6.04975 15.881 6.01881L11.5095 5.58693C11.0021 5.53725 10.5181 5.77107 10.2463 6.19826C9.88096 6.77248 9.32893 7.22092 8.69197 7.46107C8.21252 7.64186 7.8833 8.07248 7.83268 8.58506L7.14924 15.5041H6.42244L7.48588 4.73818C7.52416 4.35068 7.87002 4.066 8.25799 4.10482L17.0919 4.97748C17.4052 5.00771 17.6842 4.77959 17.7151 4.46631C17.746 4.15303 17.5172 3.87404 17.2039 3.84311L8.37002 2.97045C7.35721 2.87053 6.4515 3.61311 6.35143 4.62607L5.49424 13.3034H4.03447C2.96963 13.3034 2.10322 14.1697 2.10322 15.2347V15.7354C1.23205 16.1365 0.625488 17.0172 0.625488 18.0374V37.4667C0.625488 38.8636 1.76189 40 3.15885 40H34.961C36.3578 40 37.4942 38.8636 37.4942 37.4667V32.075H38.0928C38.7994 32.075 39.3742 31.5002 39.3742 30.7937V24.7105C39.3742 24.004 38.7994 23.4292 38.0928 23.4292ZM34.4893 14.4434C34.9257 14.4433 35.2806 14.7983 35.2806 15.2347V15.5251C35.1758 15.5119 35.0693 15.5043 34.961 15.5043H32.5426L33.2655 14.4434H34.4893ZM22.0395 1.44896C22.1457 1.29311 22.3063 1.18795 22.4916 1.15279C22.5359 1.14443 22.5803 1.14021 22.6245 1.14021C22.7649 1.14021 22.9021 1.18225 23.0206 1.26303L34.6246 9.17084C34.9463 9.39014 35.0298 9.83029 34.8106 10.152L31.1632 15.504H30.2879L32.0761 12.8801C32.3661 12.4545 32.39 11.9129 32.1383 11.4666C31.8038 10.8737 31.6681 10.1754 31.7564 9.50053C31.8221 8.99842 31.6011 8.50826 31.1799 8.22123L25.1644 4.12185C24.7431 3.83475 24.206 3.80842 23.7628 4.05318C23.1671 4.38209 22.4676 4.51123 21.7934 4.41685C21.2934 4.3467 20.7863 4.57248 20.5006 4.99162L13.3366 15.5041H12.4613L22.0395 1.44896ZM22.2905 11.1279C19.8084 11.1279 17.7709 13.0633 17.6049 15.5041H14.7159L21.4424 5.63357C21.4424 5.63357 21.4424 5.63357 21.4424 5.63357C21.4806 5.5774 21.544 5.54396 21.6091 5.54396C21.6178 5.54396 21.6264 5.54459 21.6351 5.54576C22.5521 5.67404 23.5033 5.49857 24.3136 5.05115C24.3774 5.01584 24.4592 5.02092 24.5224 5.06389L30.5379 9.16334C30.6009 9.20631 30.6355 9.28068 30.6261 9.35287C30.506 10.2708 30.6906 11.2203 31.1455 12.0267C31.182 12.0915 31.1775 12.1744 31.1342 12.2381L28.9086 15.504H26.9763C26.8102 13.0633 24.7728 11.1279 22.2905 11.1279ZM25.8333 15.5042H18.7478C18.911 13.6926 20.4371 12.2679 22.2905 12.2679C24.1439 12.2679 25.6701 13.6926 25.8333 15.5042ZM3.24314 15.2347C3.24314 14.7983 3.59807 14.4433 4.03447 14.4433H5.38166L5.27689 15.5041H3.24314V15.2347ZM1.76541 18.0374C1.76541 17.2691 2.39049 16.644 3.15885 16.644H34.961C35.7293 16.644 36.3543 17.2691 36.3543 18.0374V19.619H1.76541V18.0374ZM36.3543 37.4667C36.3543 38.235 35.7293 38.8601 34.961 38.8601H3.15885C2.39049 38.8601 1.76541 38.235 1.76541 37.4667V35.8851H4.839C5.15385 35.8851 5.40893 35.63 5.40893 35.3152C5.40893 35.0005 5.15377 34.7453 4.839 34.7453H1.76541V20.7589H36.3543V23.4292H30.9351H30.935C29.2275 23.4292 27.7485 24.4245 27.0465 25.8652C27.0442 25.8701 27.0415 25.8747 27.0391 25.8796C27.0331 25.8919 27.028 25.9046 27.0222 25.9169C26.9386 26.0945 26.866 26.2783 26.8068 26.468C26.8067 26.4686 26.8065 26.469 26.8063 26.4696C26.6802 26.875 26.6121 27.3057 26.6121 27.7521C26.6121 30.1358 28.5513 32.075 30.9349 32.075H30.935H36.3542V34.7453H8.48853C8.17369 34.7453 7.91861 35.0005 7.91861 35.3152C7.91861 35.63 8.17377 35.8851 8.48853 35.8851H36.3543V37.4667ZM38.2343 30.7937C38.2343 30.8716 38.1709 30.9351 38.0928 30.9351H30.9352C29.7285 30.9351 28.6765 30.2601 28.1369 29.268C28.1124 29.2229 28.0889 29.1772 28.0665 29.1308C28.0217 29.0381 27.9813 28.9429 27.9456 28.8454C27.8205 28.5043 27.7522 28.136 27.7522 27.7521C27.7522 27.3682 27.8206 26.9999 27.9456 26.6588C27.9814 26.5614 28.0218 26.4662 28.0665 26.3733C28.0889 26.327 28.1124 26.2812 28.1369 26.2362C28.6765 25.244 29.7285 24.5691 30.9352 24.5691H38.0928C38.1708 24.5691 38.2343 24.6326 38.2343 24.7105V30.7937Z" fill="url(#paint0_diamond)"/>
<path d="M31.0688 25.4395C29.7937 25.4395 28.7563 26.4769 28.7563 27.752C28.7563 29.027 29.7937 30.0644 31.0688 30.0644C32.344 30.0644 33.3813 29.027 33.3813 27.752C33.3813 26.4769 32.344 25.4395 31.0688 25.4395ZM31.0688 28.9245C30.4223 28.9245 29.8963 28.3984 29.8963 27.752C29.8963 27.1055 30.4223 26.5794 31.0688 26.5794C31.7154 26.5794 32.2414 27.1054 32.2414 27.752C32.2414 28.3985 31.7154 28.9245 31.0688 28.9245Z" fill="url(#paint1_diamond)"/>
</g>
<defs>
<radialGradient id="paint0_diamond" cx="0" cy="0" r="1" gradientUnits="userSpaceOnUse" gradientTransform="translate(19.9998 20) rotate(90) scale(20 19.3743)">
<stop stop-color="#A961BE"/>
<stop offset="1" stop-color="#9445AE"/>
</radialGradient>
<radialGradient id="paint1_diamond" cx="0" cy="0" r="1" gradientUnits="userSpaceOnUse" gradientTransform="translate(31.0688 27.7519) rotate(90) scale(2.31246)">
<stop stop-color="#A961BE"/>
<stop offset="1" stop-color="#9445AE"/>
</radialGradient>
<clipPath id="clip0">
<rect width="40" height="40" fill="white"/>
</clipPath>
</defs>
</svg>
