<svg width="40" height="40" viewBox="0 0 40 40" fill="none" xmlns="http://www.w3.org/2000/svg">
<path d="M21.0894 25.326C21.7834 25.272 22.416 24.918 22.8267 24.3534L29.0687 15.724C29.26 15.4594 29.2314 15.094 28.9994 14.862C28.7674 14.6307 28.402 14.602 28.1374 14.7927L19.5067 21.0367C18.944 21.446 18.59 22.0787 18.536 22.7727C18.482 23.4667 18.7333 24.146 19.2247 24.6374C19.672 25.0854 20.2753 25.3334 20.9027 25.3334C20.9647 25.3334 21.0267 25.3307 21.0894 25.326ZM19.8654 22.8767C19.8887 22.572 20.0447 22.294 20.29 22.1154L25.5547 18.3067L21.7473 23.57C21.5673 23.8174 21.2893 23.9727 20.9847 23.9967C20.6813 24.0167 20.3833 23.9114 20.1667 23.6947C19.952 23.4794 19.8414 23.1807 19.8654 22.8767Z" fill="url(#paint0_diamond)"/>
<path d="M36.0225 13.0427C36.0158 13.0287 36.0158 13.014 36.0085 13C36.0005 12.9867 35.9878 12.9793 35.9791 12.9667C35.3051 11.8107 34.5078 10.7353 33.6024 9.76067L35.0344 8.32933L35.9771 9.272L38.8051 6.44333L35.9771 3.61533L33.1485 6.44333L34.0918 7.38667L32.6598 8.818C31.6851 7.91267 30.6105 7.11467 29.4538 6.44067C29.4411 6.432 29.4338 6.41933 29.4205 6.41133C29.4065 6.40333 29.3918 6.404 29.3778 6.39667C27.3158 5.20867 24.9991 4.41733 22.5291 4.12733V3.33333H23.5291C24.4485 3.33333 25.1958 2.586 25.1958 1.66667C25.1958 0.747333 24.4478 0 23.5285 0H17.5285C16.6091 0 15.8618 0.747333 15.8618 1.66667C15.8618 2.586 16.6091 3.33333 17.5285 3.33333H18.5285V4.104C17.8085 4.18067 17.0898 4.298 16.3791 4.46067C16.0205 4.54267 15.7958 4.90067 15.8785 5.25933C15.9605 5.618 16.3185 5.84333 16.6771 5.76C17.2905 5.61933 17.9098 5.51333 18.5305 5.442L19.2458 5.38667C19.4645 5.37 19.6658 5.358 19.8618 5.34867V6.66667C19.8618 7.03533 20.1598 7.33333 20.5285 7.33333C20.8971 7.33333 21.1951 7.03533 21.1951 6.66667V5.35333C23.7025 5.46867 26.0651 6.142 28.1658 7.25L27.5085 8.388C27.3245 8.70733 27.4338 9.11467 27.7525 9.29867C27.8571 9.35933 27.9718 9.388 28.0851 9.388C28.3158 9.388 28.5398 9.26867 28.6631 9.05467L29.3185 7.91933C31.4045 9.24267 33.1765 11.0147 34.4998 13.1007L33.3645 13.756C33.0465 13.94 32.9371 14.3473 33.1218 14.6667C33.2458 14.8807 33.4691 15 33.6998 15C33.8131 15 33.9278 14.9713 34.0324 14.9107L35.1705 14.2533C36.2938 16.384 36.9691 18.7853 37.0698 21.3327H35.7531C35.3845 21.3327 35.0865 21.6307 35.0865 21.9993C35.0865 22.368 35.3845 22.666 35.7531 22.666H37.0698C36.9691 25.2133 36.2938 27.6147 35.1705 29.7453L34.0324 29.088C33.7138 28.904 33.3058 29.012 33.1218 29.332C32.9378 29.6513 33.0471 30.0587 33.3658 30.2427L34.5011 30.898C33.1778 32.984 31.4058 34.756 29.3198 36.0793L28.6645 34.944C28.4798 34.624 28.0711 34.5153 27.7538 34.7C27.4345 34.884 27.3251 35.292 27.5098 35.6107L28.1671 36.7487C26.0665 37.8567 23.7038 38.53 21.1965 38.6453V37.3333C21.1965 36.9647 20.8985 36.6667 20.5298 36.6667C20.1611 36.6667 19.8631 36.9647 19.8631 37.3333V38.6507C18.7985 38.614 17.7305 38.4807 16.6791 38.2393C16.3205 38.1533 15.9625 38.3813 15.8805 38.74C15.7978 39.0987 16.0225 39.4567 16.3811 39.5387C17.7118 39.8453 19.0711 40 20.4198 40C20.4525 40 20.4838 39.998 20.5165 39.9973C20.5211 39.9973 20.5245 40 20.5285 40C20.5338 40 20.5385 39.9967 20.5438 39.9967C23.7485 39.9747 26.7551 39.1093 29.3565 37.6147C29.3771 37.6053 29.3991 37.6007 29.4191 37.5887C29.4325 37.5807 29.4398 37.568 29.4525 37.5593C32.1451 35.99 34.3951 33.7427 35.9678 31.052C35.9804 31.034 35.9965 31.02 36.0078 31C36.0158 30.986 36.0151 30.9713 36.0218 30.9573C37.5445 28.3173 38.4198 25.26 38.4198 22C38.4198 18.74 37.5445 15.6827 36.0225 13.0427ZM35.9764 5.50067L36.9191 6.44333L35.9764 7.38667L35.0331 6.44333L35.9764 5.50067ZM19.8618 4.014V2H17.5285C17.3451 2 17.1951 1.85 17.1951 1.66667C17.1951 1.48333 17.3451 1.33333 17.5285 1.33333H23.5285C23.7118 1.33333 23.8618 1.48333 23.8618 1.66667C23.8618 1.85 23.7118 2 23.5285 2H21.1951V4.014C20.9631 4.00467 20.7418 4 20.5285 4C20.5098 4 20.4885 4.00133 20.4698 4.00133C20.4531 4.00133 20.4365 4 20.4198 4C20.3105 4 20.2011 4.00733 20.0918 4.00933C20.0145 4.01133 19.9418 4.01067 19.8618 4.014Z" fill="url(#paint1_diamond)"/>
<path d="M14.5288 9.3335H11.1955C10.8268 9.3335 10.5288 9.6315 10.5288 10.0002C10.5288 10.3688 10.8268 10.6668 11.1955 10.6668H14.5288C14.8975 10.6668 15.1955 10.3688 15.1955 10.0002C15.1955 9.6315 14.8975 9.3335 14.5288 9.3335Z" fill="url(#paint2_diamond)"/>
<path d="M14.5286 14H7.86198C7.49331 14 7.19531 14.298 7.19531 14.6667C7.19531 15.0353 7.49331 15.3333 7.86198 15.3333H14.5286C14.8973 15.3333 15.1953 15.0353 15.1953 14.6667C15.1953 14.298 14.8973 14 14.5286 14Z" fill="url(#paint3_diamond)"/>
<path d="M14.5285 18.6665H4.52848C4.15982 18.6665 3.86182 18.9645 3.86182 19.3332C3.86182 19.7018 4.15982 19.9998 4.52848 19.9998H14.5285C14.8971 19.9998 15.1951 19.7018 15.1951 19.3332C15.1951 18.9645 14.8971 18.6665 14.5285 18.6665Z" fill="url(#paint4_diamond)"/>
<path d="M14.5286 23.3335H1.86198C1.49331 23.3335 1.19531 23.6315 1.19531 24.0002C1.19531 24.3688 1.49331 24.6668 1.86198 24.6668H14.5286C14.8973 24.6668 15.1953 24.3688 15.1953 24.0002C15.1953 23.6315 14.8973 23.3335 14.5286 23.3335Z" fill="url(#paint5_diamond)"/>
<path d="M14.5286 28H5.86198C5.49331 28 5.19531 28.298 5.19531 28.6667C5.19531 29.0353 5.49331 29.3333 5.86198 29.3333H14.5286C14.8973 29.3333 15.1953 29.0353 15.1953 28.6667C15.1953 28.298 14.8973 28 14.5286 28Z" fill="url(#paint6_diamond)"/>
<path d="M14.5286 32.6665H9.86198C9.49331 32.6665 9.19531 32.9645 9.19531 33.3332C9.19531 33.7018 9.49331 33.9998 9.86198 33.9998H14.5286C14.8973 33.9998 15.1953 33.7018 15.1953 33.3332C15.1953 32.9645 14.8973 32.6665 14.5286 32.6665Z" fill="url(#paint7_diamond)"/>
<defs>
<radialGradient id="paint0_diamond" cx="0" cy="0" r="1" gradientUnits="userSpaceOnUse" gradientTransform="translate(23.8618 20.0002) rotate(90) scale(5.33319 5.33304)">
<stop stop-color="#A961BE"/>
<stop offset="1" stop-color="#9445AE"/>
</radialGradient>
<radialGradient id="paint1_diamond" cx="0" cy="0" r="1" gradientUnits="userSpaceOnUse" gradientTransform="translate(27.3332 20) rotate(90) scale(20 11.4719)">
<stop stop-color="#A961BE"/>
<stop offset="1" stop-color="#9445AE"/>
</radialGradient>
<radialGradient id="paint2_diamond" cx="0" cy="0" r="1" gradientUnits="userSpaceOnUse" gradientTransform="translate(12.8621 10.0002) rotate(90) scale(0.666667 2.33333)">
<stop stop-color="#A961BE"/>
<stop offset="1" stop-color="#9445AE"/>
</radialGradient>
<radialGradient id="paint3_diamond" cx="0" cy="0" r="1" gradientUnits="userSpaceOnUse" gradientTransform="translate(11.1953 14.6667) rotate(90) scale(0.666667 4)">
<stop stop-color="#A961BE"/>
<stop offset="1" stop-color="#9445AE"/>
</radialGradient>
<radialGradient id="paint4_diamond" cx="0" cy="0" r="1" gradientUnits="userSpaceOnUse" gradientTransform="translate(9.52848 19.3332) rotate(90) scale(0.666667 5.66667)">
<stop stop-color="#A961BE"/>
<stop offset="1" stop-color="#9445AE"/>
</radialGradient>
<radialGradient id="paint5_diamond" cx="0" cy="0" r="1" gradientUnits="userSpaceOnUse" gradientTransform="translate(8.19531 24.0002) rotate(90) scale(0.666668 7)">
<stop stop-color="#A961BE"/>
<stop offset="1" stop-color="#9445AE"/>
</radialGradient>
<radialGradient id="paint6_diamond" cx="0" cy="0" r="1" gradientUnits="userSpaceOnUse" gradientTransform="translate(10.1953 28.6667) rotate(90) scale(0.666667 5)">
<stop stop-color="#A961BE"/>
<stop offset="1" stop-color="#9445AE"/>
</radialGradient>
<radialGradient id="paint7_diamond" cx="0" cy="0" r="1" gradientUnits="userSpaceOnUse" gradientTransform="translate(12.1953 33.3332) rotate(90) scale(0.666666 3)">
<stop stop-color="#A961BE"/>
<stop offset="1" stop-color="#9445AE"/>
</radialGradient>
</defs>
</svg>
